
<svg width="105" height="18" viewBox="0 0 105 18" fill="none" xmlns="http://www.w3.org/2000/svg">
<path d="M20.424 0.167973V17.16H15.12V8.68797L12.504 17.16H7.94399L5.32799 8.68797V17.16H-1.21891e-05V0.167973H6.52799L10.272 10.368L13.92 0.167973H20.424ZM34.2041 8.44797C35.2281 8.68797 36.0201 9.18397 36.5801 9.93597C37.1561 10.672 37.4441 11.528 37.4441 12.504C37.4441 13.992 36.9481 15.144 35.9561 15.96C34.9801 16.76 33.5721 17.16 31.7321 17.16H22.8281V0.167973H31.4921C33.2201 0.167973 34.5801 0.543973 35.5721 1.29597C36.5641 2.04797 37.0601 3.14397 37.0601 4.58397C37.0601 5.57597 36.7961 6.41597 36.2681 7.10397C35.7561 7.77597 35.0681 8.22397 34.2041 8.44797ZM28.1561 6.79197H30.2201C30.7001 6.79197 31.0521 6.69597 31.2761 6.50397C31.5161 6.31197 31.6361 6.01597 31.6361 5.61597C31.6361 5.19997 31.5161 4.89597 31.2761 4.70397C31.0521 4.49597 30.7001 4.39197 30.2201 4.39197H28.1561V6.79197ZM30.5801 12.888C31.0601 12.888 31.4121 12.8 31.6361 12.624C31.8761 12.432 31.9961 12.128 31.9961 11.712C31.9961 10.896 31.5241 10.488 30.5801 10.488H28.1561V12.888H30.5801ZM38.7544 8.63997C38.7544 6.95997 39.0904 5.46397 39.7624 4.15197C40.4504 2.83997 41.4264 1.82397 42.6904 1.10397C43.9544 0.367972 45.4424 -2.76566e-05 47.1544 -2.76566e-05C48.6264 -2.76566e-05 49.9384 0.279973 51.0904 0.839973C52.2584 1.38397 53.2024 2.15997 53.9224 3.16797C54.6584 4.17597 55.1464 5.35197 55.3864 6.69597H49.7704C49.5144 6.13597 49.1464 5.70397 48.6664 5.39997C48.2024 5.07997 47.6664 4.91997 47.0584 4.91997C46.1624 4.91997 45.4504 5.25597 44.9224 5.92797C44.4104 6.59997 44.1544 7.50397 44.1544 8.63997C44.1544 9.77597 44.4104 10.68 44.9224 11.352C45.4504 12.024 46.1624 12.36 47.0584 12.36C47.6664 12.36 48.2024 12.208 48.6664 11.904C49.1464 11.584 49.5144 11.144 49.7704 10.584H55.3864C55.1464 11.928 54.6584 13.104 53.9224 14.112C53.2024 15.12 52.2584 15.904 51.0904 16.464C49.9384 17.008 48.6264 17.28 47.1544 17.28C45.4424 17.28 43.9544 16.92 42.6904 16.2C41.4264 15.464 40.4504 14.44 39.7624 13.128C39.0904 11.816 38.7544 10.32 38.7544 8.63997Z" fill="white"/>
<path d="M67.6647 7.51997C67.6647 8.26664 67.4847 8.96664 67.1247 9.61997C66.778 10.2733 66.2247 10.8 65.4647 11.2C64.718 11.6 63.7713 11.8 62.6247 11.8H60.2847V17.16H57.4847V3.19997H62.6247C63.7047 3.19997 64.6247 3.38664 65.3847 3.75997C66.1447 4.13331 66.7113 4.64664 67.0847 5.29997C67.4713 5.95331 67.6647 6.69331 67.6647 7.51997ZM62.5047 9.53997C63.278 9.53997 63.8513 9.36664 64.2247 9.01997C64.598 8.65997 64.7847 8.15997 64.7847 7.51997C64.7847 6.15997 64.0247 5.47997 62.5047 5.47997H60.2847V9.53997H62.5047ZM72.4526 14.94H77.0526V17.16H69.6526V3.19997H72.4526V14.94ZM87.3923 14.5H81.8323L80.9123 17.16H77.9723L82.9923 3.17997H86.2523L91.2723 17.16H88.3123L87.3923 14.5ZM86.6323 12.26L84.6123 6.41997L82.5923 12.26H86.6323ZM104.249 3.19997L99.5287 12.3V17.16H96.7287V12.3L91.9887 3.19997H95.1487L98.1487 9.57997L101.129 3.19997H104.249Z" fill="#FF0000"/>
</svg>
